<?xml version="1.0" encoding="utf-8" standalone="no"?>
<!DOCTYPE svg PUBLIC "-//W3C//DTD SVG 1.1//EN"
  "http://www.w3.org/Graphics/SVG/1.1/DTD/svg11.dtd">
<!-- Created with matplotlib (https://matplotlib.org/) -->
<svg height="345.6pt" version="1.1" viewBox="0 0 460.8 345.6" width="460.8pt" xmlns="http://www.w3.org/2000/svg" xmlns:xlink="http://www.w3.org/1999/xlink">
 <defs>
  <style type="text/css">
*{stroke-linecap:butt;stroke-linejoin:round;}
  </style>
 </defs>
 <g id="figure_1">
  <g id="patch_1">
   <path d="M 0 345.6 
L 460.8 345.6 
L 460.8 0 
L 0 0 
z
" style="fill:#ffffff;"/>
  </g>
  <g id="axes_1">
   <g id="patch_2">
    <path d="M 369.216 174.528 
C 369.216 157.055246 365.774248 139.752393 359.087715 123.609673 
C 352.401182 107.466954 342.599903 92.798303 330.2448 80.4432 
C 317.889697 68.088097 303.221046 58.286818 287.078327 51.600285 
C 270.935607 44.913752 253.632754 41.472 236.16 41.472 
C 218.687246 41.472 201.384393 44.913752 185.241673 51.600285 
C 169.098954 58.286818 154.430303 68.088097 142.0752 80.4432 
C 129.720097 92.798303 119.918818 107.466954 113.232285 123.609673 
C 106.545752 139.752393 103.104 157.055246 103.104 174.528 
C 103.104 192.000754 106.545752 209.303607 113.232285 225.446327 
C 119.918818 241.589046 129.720097 256.257697 142.0752 268.6128 
C 154.430303 280.967903 169.098954 290.769182 185.241673 297.455715 
C 201.384393 304.142248 218.687246 307.584 236.16 307.584 
C 253.632754 307.584 270.935607 304.142248 287.078327 297.455715 
C 303.221046 290.769182 317.889697 280.967903 330.2448 268.6128 
C 342.599903 256.257697 352.401182 241.589046 359.087715 225.446327 
C 365.774248 209.303607 369.216 192.000754 369.216 174.528 
M 236.16 174.528 
C 236.16 174.528 236.16 174.528 236.16 174.528 
C 236.16 174.528 236.16 174.528 236.16 174.528 
C 236.16 174.528 236.16 174.528 236.16 174.528 
C 236.16 174.528 236.16 174.528 236.16 174.528 
C 236.16 174.528 236.16 174.528 236.16 174.528 
C 236.16 174.528 236.16 174.528 236.16 174.528 
C 236.16 174.528 236.16 174.528 236.16 174.528 
C 236.16 174.528 236.16 174.528 236.16 174.528 
C 236.16 174.528 236.16 174.528 236.16 174.528 
C 236.16 174.528 236.16 174.528 236.16 174.528 
C 236.16 174.528 236.16 174.528 236.16 174.528 
C 236.16 174.528 236.16 174.528 236.16 174.528 
C 236.16 174.528 236.16 174.528 236.16 174.528 
C 236.16 174.528 236.16 174.528 236.16 174.528 
C 236.16 174.528 236.16 174.528 236.16 174.528 
C 236.16 174.528 236.16 174.528 236.16 174.528 
M 369.216 174.528 
z
" style="fill:#ffffff;"/>
   </g>
   <g id="matplotlib.axis_1">
    <g id="xtick_1">
     <g id="line2d_1">
      <path clip-path="url(#p12787b6e1d)" d="M 236.16 174.528 
L 369.216 174.528 
" style="fill:none;stroke:#b0b0b0;stroke-linecap:square;stroke-width:0.8;"/>
     </g>
     <g id="text_1">
      <!-- 0° -->
      <defs>
       <path d="M 31.78125 66.40625 
Q 24.171875 66.40625 20.328125 58.90625 
Q 16.5 51.421875 16.5 36.375 
Q 16.5 21.390625 20.328125 13.890625 
Q 24.171875 6.390625 31.78125 6.390625 
Q 39.453125 6.390625 43.28125 13.890625 
Q 47.125 21.390625 47.125 36.375 
Q 47.125 51.421875 43.28125 58.90625 
Q 39.453125 66.40625 31.78125 66.40625 
z
M 31.78125 74.21875 
Q 44.046875 74.21875 50.515625 64.515625 
Q 56.984375 54.828125 56.984375 36.375 
Q 56.984375 17.96875 50.515625 8.265625 
Q 44.046875 -1.421875 31.78125 -1.421875 
Q 19.53125 -1.421875 13.0625 8.265625 
Q 6.59375 17.96875 6.59375 36.375 
Q 6.59375 54.828125 13.0625 64.515625 
Q 19.53125 74.21875 31.78125 74.21875 
z
" id="DejaVuSans-48"/>
       <path d="M 25 67.921875 
Q 21.09375 67.921875 18.40625 65.203125 
Q 15.71875 62.5 15.71875 58.59375 
Q 15.71875 54.734375 18.40625 52.078125 
Q 21.09375 49.421875 25 49.421875 
Q 28.90625 49.421875 31.59375 52.078125 
Q 34.28125 54.734375 34.28125 58.59375 
Q 34.28125 62.453125 31.5625 65.1875 
Q 28.859375 67.921875 25 67.921875 
z
M 25 74.21875 
Q 28.125 74.21875 31 73.015625 
Q 33.890625 71.828125 35.984375 69.578125 
Q 38.234375 67.390625 39.359375 64.59375 
Q 40.484375 61.8125 40.484375 58.59375 
Q 40.484375 52.15625 35.96875 47.6875 
Q 31.453125 43.21875 24.90625 43.21875 
Q 18.3125 43.21875 13.90625 47.609375 
Q 9.515625 52 9.515625 58.59375 
Q 9.515625 65.140625 14 69.671875 
Q 18.5 74.21875 25 74.21875 
z
" id="DejaVuSans-176"/>
      </defs>
      <g transform="translate(377.53475 177.287375)scale(0.1 -0.1)">
       <use xlink:href="#DejaVuSans-48"/>
       <use x="63.623047" xlink:href="#DejaVuSans-176"/>
      </g>
     </g>
    </g>
    <g id="xtick_2">
     <g id="line2d_2">
      <path clip-path="url(#p12787b6e1d)" d="M 236.16 174.528 
L 330.2448 80.4432 
" style="fill:none;stroke:#b0b0b0;stroke-linecap:square;stroke-width:0.8;"/>
     </g>
     <g id="text_2">
      <!-- 45° -->
      <defs>
       <path d="M 37.796875 64.3125 
L 12.890625 25.390625 
L 37.796875 25.390625 
z
M 35.203125 72.90625 
L 47.609375 72.90625 
L 47.609375 25.390625 
L 58.015625 25.390625 
L 58.015625 17.1875 
L 47.609375 17.1875 
L 47.609375 0 
L 37.796875 0 
L 37.796875 17.1875 
L 4.890625 17.1875 
L 4.890625 26.703125 
z
" id="DejaVuSans-52"/>
       <path d="M 10.796875 72.90625 
L 49.515625 72.90625 
L 49.515625 64.59375 
L 19.828125 64.59375 
L 19.828125 46.734375 
Q 21.96875 47.46875 24.109375 47.828125 
Q 26.265625 48.1875 28.421875 48.1875 
Q 40.625 48.1875 47.75 41.5 
Q 54.890625 34.8125 54.890625 23.390625 
Q 54.890625 11.625 47.5625 5.09375 
Q 40.234375 -1.421875 26.90625 -1.421875 
Q 22.3125 -1.421875 17.546875 -0.640625 
Q 12.796875 0.140625 7.71875 1.703125 
L 7.71875 11.625 
Q 12.109375 9.234375 16.796875 8.0625 
Q 21.484375 6.890625 26.703125 6.890625 
Q 35.15625 6.890625 40.078125 11.328125 
Q 45.015625 15.765625 45.015625 23.390625 
Q 45.015625 31 40.078125 35.4375 
Q 35.15625 39.890625 26.703125 39.890625 
Q 22.75 39.890625 18.8125 39.015625 
Q 14.890625 38.140625 10.796875 36.28125 
z
" id="DejaVuSans-53"/>
      </defs>
      <g transform="translate(331.281795 73.30308)scale(0.1 -0.1)">
       <use xlink:href="#DejaVuSans-52"/>
       <use x="63.623047" xlink:href="#DejaVuSans-53"/>
       <use x="127.246094" xlink:href="#DejaVuSans-176"/>
      </g>
     </g>
    </g>
    <g id="xtick_3">
     <g id="line2d_3">
      <path clip-path="url(#p12787b6e1d)" d="M 236.16 174.528 
L 236.16 41.472 
" style="fill:none;stroke:#b0b0b0;stroke-linecap:square;stroke-width:0.8;"/>
     </g>
     <g id="text_3">
      <!-- 90° -->
      <defs>
       <path d="M 10.984375 1.515625 
L 10.984375 10.5 
Q 14.703125 8.734375 18.5 7.8125 
Q 22.3125 6.890625 25.984375 6.890625 
Q 35.75 6.890625 40.890625 13.453125 
Q 46.046875 20.015625 46.78125 33.40625 
Q 43.953125 29.203125 39.59375 26.953125 
Q 35.25 24.703125 29.984375 24.703125 
Q 19.046875 24.703125 12.671875 31.3125 
Q 6.296875 37.9375 6.296875 49.421875 
Q 6.296875 60.640625 12.9375 67.421875 
Q 19.578125 74.21875 30.609375 74.21875 
Q 43.265625 74.21875 49.921875 64.515625 
Q 56.59375 54.828125 56.59375 36.375 
Q 56.59375 19.140625 48.40625 8.859375 
Q 40.234375 -1.421875 26.421875 -1.421875 
Q 22.703125 -1.421875 18.890625 -0.6875 
Q 15.09375 0.046875 10.984375 1.515625 
z
M 30.609375 32.421875 
Q 37.25 32.421875 41.125 36.953125 
Q 45.015625 41.5 45.015625 49.421875 
Q 45.015625 57.28125 41.125 61.84375 
Q 37.25 66.40625 30.609375 66.40625 
Q 23.96875 66.40625 20.09375 61.84375 
Q 16.21875 57.28125 16.21875 49.421875 
Q 16.21875 41.5 20.09375 36.953125 
Q 23.96875 32.421875 30.609375 32.421875 
z
" id="DejaVuSans-57"/>
      </defs>
      <g transform="translate(227.2975 30.231375)scale(0.1 -0.1)">
       <use xlink:href="#DejaVuSans-57"/>
       <use x="63.623047" xlink:href="#DejaVuSans-48"/>
       <use x="127.246094" xlink:href="#DejaVuSans-176"/>
      </g>
     </g>
    </g>
    <g id="xtick_4">
     <g id="line2d_4">
      <path clip-path="url(#p12787b6e1d)" d="M 236.16 174.528 
L 142.0752 80.4432 
" style="fill:none;stroke:#b0b0b0;stroke-linecap:square;stroke-width:0.8;"/>
     </g>
     <g id="text_4">
      <!-- 135° -->
      <defs>
       <path d="M 12.40625 8.296875 
L 28.515625 8.296875 
L 28.515625 63.921875 
L 10.984375 60.40625 
L 10.984375 69.390625 
L 28.421875 72.90625 
L 38.28125 72.90625 
L 38.28125 8.296875 
L 54.390625 8.296875 
L 54.390625 0 
L 12.40625 0 
z
" id="DejaVuSans-49"/>
       <path d="M 40.578125 39.3125 
Q 47.65625 37.796875 51.625 33 
Q 55.609375 28.21875 55.609375 21.1875 
Q 55.609375 10.40625 48.1875 4.484375 
Q 40.765625 -1.421875 27.09375 -1.421875 
Q 22.515625 -1.421875 17.65625 -0.515625 
Q 12.796875 0.390625 7.625 2.203125 
L 7.625 11.71875 
Q 11.71875 9.328125 16.59375 8.109375 
Q 21.484375 6.890625 26.8125 6.890625 
Q 36.078125 6.890625 40.9375 10.546875 
Q 45.796875 14.203125 45.796875 21.1875 
Q 45.796875 27.640625 41.28125 31.265625 
Q 36.765625 34.90625 28.71875 34.90625 
L 20.21875 34.90625 
L 20.21875 43.015625 
L 29.109375 43.015625 
Q 36.375 43.015625 40.234375 45.921875 
Q 44.09375 48.828125 44.09375 54.296875 
Q 44.09375 59.90625 40.109375 62.90625 
Q 36.140625 65.921875 28.71875 65.921875 
Q 24.65625 65.921875 20.015625 65.03125 
Q 15.375 64.15625 9.8125 62.3125 
L 9.8125 71.09375 
Q 15.4375 72.65625 20.34375 73.4375 
Q 25.25 74.21875 29.59375 74.21875 
Q 40.828125 74.21875 47.359375 69.109375 
Q 53.90625 64.015625 53.90625 55.328125 
Q 53.90625 49.265625 50.4375 45.09375 
Q 46.96875 40.921875 40.578125 39.3125 
z
" id="DejaVuSans-51"/>
      </defs>
      <g transform="translate(120.131955 73.30308)scale(0.1 -0.1)">
       <use xlink:href="#DejaVuSans-49"/>
       <use x="63.623047" xlink:href="#DejaVuSans-51"/>
       <use x="127.246094" xlink:href="#DejaVuSans-53"/>
       <use x="190.869141" xlink:href="#DejaVuSans-176"/>
      </g>
     </g>
    </g>
    <g id="xtick_5">
     <g id="line2d_5">
      <path clip-path="url(#p12787b6e1d)" d="M 236.16 174.528 
L 103.104 174.528 
" style="fill:none;stroke:#b0b0b0;stroke-linecap:square;stroke-width:0.8;"/>
     </g>
     <g id="text_5">
      <!-- 180° -->
      <defs>
       <path d="M 31.78125 34.625 
Q 24.75 34.625 20.71875 30.859375 
Q 16.703125 27.09375 16.703125 20.515625 
Q 16.703125 13.921875 20.71875 10.15625 
Q 24.75 6.390625 31.78125 6.390625 
Q 38.8125 6.390625 42.859375 10.171875 
Q 46.921875 13.96875 46.921875 20.515625 
Q 46.921875 27.09375 42.890625 30.859375 
Q 38.875 34.625 31.78125 34.625 
z
M 21.921875 38.8125 
Q 15.578125 40.375 12.03125 44.71875 
Q 8.5 49.078125 8.5 55.328125 
Q 8.5 64.0625 14.71875 69.140625 
Q 20.953125 74.21875 31.78125 74.21875 
Q 42.671875 74.21875 48.875 69.140625 
Q 55.078125 64.0625 55.078125 55.328125 
Q 55.078125 49.078125 51.53125 44.71875 
Q 48 40.375 41.703125 38.8125 
Q 48.828125 37.15625 52.796875 32.3125 
Q 56.78125 27.484375 56.78125 20.515625 
Q 56.78125 9.90625 50.3125 4.234375 
Q 43.84375 -1.421875 31.78125 -1.421875 
Q 19.734375 -1.421875 13.25 4.234375 
Q 6.78125 9.90625 6.78125 20.515625 
Q 6.78125 27.484375 10.78125 32.3125 
Q 14.796875 37.15625 21.921875 38.8125 
z
M 18.3125 54.390625 
Q 18.3125 48.734375 21.84375 45.5625 
Q 25.390625 42.390625 31.78125 42.390625 
Q 38.140625 42.390625 41.71875 45.5625 
Q 45.3125 48.734375 45.3125 54.390625 
Q 45.3125 60.0625 41.71875 63.234375 
Q 38.140625 66.40625 31.78125 66.40625 
Q 25.390625 66.40625 21.84375 63.234375 
Q 18.3125 60.0625 18.3125 54.390625 
z
" id="DejaVuSans-56"/>
      </defs>
      <g transform="translate(77.06025 177.287375)scale(0.1 -0.1)">
       <use xlink:href="#DejaVuSans-49"/>
       <use x="63.623047" xlink:href="#DejaVuSans-56"/>
       <use x="127.246094" xlink:href="#DejaVuSans-48"/>
       <use x="190.869141" xlink:href="#DejaVuSans-176"/>
      </g>
     </g>
    </g>
    <g id="xtick_6">
     <g id="line2d_6">
      <path clip-path="url(#p12787b6e1d)" d="M 236.16 174.528 
L 142.0752 268.6128 
" style="fill:none;stroke:#b0b0b0;stroke-linecap:square;stroke-width:0.8;"/>
     </g>
     <g id="text_6">
      <!-- 225° -->
      <defs>
       <path d="M 19.1875 8.296875 
L 53.609375 8.296875 
L 53.609375 0 
L 7.328125 0 
L 7.328125 8.296875 
Q 12.9375 14.109375 22.625 23.890625 
Q 32.328125 33.6875 34.8125 36.53125 
Q 39.546875 41.84375 41.421875 45.53125 
Q 43.3125 49.21875 43.3125 52.78125 
Q 43.3125 58.59375 39.234375 62.25 
Q 35.15625 65.921875 28.609375 65.921875 
Q 23.96875 65.921875 18.8125 64.3125 
Q 13.671875 62.703125 7.8125 59.421875 
L 7.8125 69.390625 
Q 13.765625 71.78125 18.9375 73 
Q 24.125 74.21875 28.421875 74.21875 
Q 39.75 74.21875 46.484375 68.546875 
Q 53.21875 62.890625 53.21875 53.421875 
Q 53.21875 48.921875 51.53125 44.890625 
Q 49.859375 40.875 45.40625 35.40625 
Q 44.1875 33.984375 37.640625 27.21875 
Q 31.109375 20.453125 19.1875 8.296875 
z
" id="DejaVuSans-50"/>
      </defs>
      <g transform="translate(120.131955 281.27167)scale(0.1 -0.1)">
       <use xlink:href="#DejaVuSans-50"/>
       <use x="63.623047" xlink:href="#DejaVuSans-50"/>
       <use x="127.246094" xlink:href="#DejaVuSans-53"/>
       <use x="190.869141" xlink:href="#DejaVuSans-176"/>
      </g>
     </g>
    </g>
    <g id="xtick_7">
     <g id="line2d_7">
      <path clip-path="url(#p12787b6e1d)" d="M 236.16 174.528 
L 236.16 307.584 
" style="fill:none;stroke:#b0b0b0;stroke-linecap:square;stroke-width:0.8;"/>
     </g>
     <g id="text_7">
      <!-- 270° -->
      <defs>
       <path d="M 8.203125 72.90625 
L 55.078125 72.90625 
L 55.078125 68.703125 
L 28.609375 0 
L 18.3125 0 
L 43.21875 64.59375 
L 8.203125 64.59375 
z
" id="DejaVuSans-55"/>
      </defs>
      <g transform="translate(224.11625 324.343375)scale(0.1 -0.1)">
       <use xlink:href="#DejaVuSans-50"/>
       <use x="63.623047" xlink:href="#DejaVuSans-55"/>
       <use x="127.246094" xlink:href="#DejaVuSans-48"/>
       <use x="190.869141" xlink:href="#DejaVuSans-176"/>
      </g>
     </g>
    </g>
    <g id="xtick_8">
     <g id="line2d_8">
      <path clip-path="url(#p12787b6e1d)" d="M 236.16 174.528 
L 330.2448 268.6128 
" style="fill:none;stroke:#b0b0b0;stroke-linecap:square;stroke-width:0.8;"/>
     </g>
     <g id="text_8">
      <!-- 315° -->
      <g transform="translate(328.100545 281.27167)scale(0.1 -0.1)">
       <use xlink:href="#DejaVuSans-51"/>
       <use x="63.623047" xlink:href="#DejaVuSans-49"/>
       <use x="127.246094" xlink:href="#DejaVuSans-53"/>
       <use x="190.869141" xlink:href="#DejaVuSans-176"/>
      </g>
     </g>
    </g>
   </g>
   <g id="matplotlib.axis_2">
    <g id="ytick_1">
     <g id="line2d_9">
      <path clip-path="url(#p12787b6e1d)" d="M 256.528747 174.528 
L 256.417165 172.398886 
L 256.083641 170.293099 
L 255.53183 168.233711 
L 254.767776 166.243284 
L 253.799852 164.343626 
L 252.638663 162.555551 
L 251.296929 160.898648 
L 249.789352 159.391071 
L 248.132449 158.049337 
L 246.344374 156.888148 
L 244.444716 155.920224 
L 242.454289 155.15617 
L 240.394901 154.604359 
L 238.289114 154.270835 
L 236.16 154.159253 
L 234.030886 154.270835 
L 231.925099 154.604359 
L 229.865711 155.15617 
L 227.875284 155.920224 
L 225.975626 156.888148 
L 224.187551 158.049337 
L 222.530648 159.391071 
L 221.023071 160.898648 
L 219.681337 162.555551 
L 218.520148 164.343626 
L 217.552224 166.243284 
L 216.78817 168.233711 
L 216.236359 170.293099 
L 215.902835 172.398886 
L 215.791253 174.528 
L 215.902835 176.657114 
L 216.236359 178.762901 
L 216.78817 180.822289 
L 217.552224 182.812716 
L 218.520148 184.712374 
L 219.681337 186.500449 
L 221.023071 188.157352 
L 222.530648 189.664929 
L 224.187551 191.006663 
L 225.975626 192.167852 
L 227.875284 193.135776 
L 229.865711 193.89983 
L 231.925099 194.451641 
L 234.030886 194.785165 
L 236.16 194.896747 
L 238.289114 194.785165 
L 240.394901 194.451641 
L 242.454289 193.89983 
L 244.444716 193.135776 
L 246.344374 192.167852 
L 248.132449 191.006663 
L 249.789352 189.664929 
L 251.296929 188.157352 
L 252.638663 186.500449 
L 253.799852 184.712374 
L 254.767776 182.812716 
L 255.53183 180.822289 
L 256.083641 178.762901 
L 256.417165 176.657114 
L 256.528747 174.528 
L 256.528747 174.528 
" style="fill:none;stroke:#b0b0b0;stroke-linecap:square;stroke-width:0.8;"/>
     </g>
     <g id="text_9">
      <!-- 0.2 -->
      <defs>
       <path d="M 10.6875 12.40625 
L 21 12.40625 
L 21 0 
L 10.6875 0 
z
" id="DejaVuSans-46"/>
      </defs>
      <g transform="translate(254.978269 164.65353)scale(0.1 -0.1)">
       <use xlink:href="#DejaVuSans-48"/>
       <use x="63.623047" xlink:href="#DejaVuSans-46"/>
       <use x="95.410156" xlink:href="#DejaVuSans-50"/>
      </g>
     </g>
    </g>
    <g id="ytick_2">
     <g id="line2d_10">
      <path clip-path="url(#p12787b6e1d)" d="M 276.897494 174.528 
L 276.79826 171.686296 
L 276.50104 168.858437 
L 276.007282 166.058199 
L 275.319393 163.299225 
L 274.440723 160.594956 
L 273.375553 157.958568 
L 272.129073 155.402905 
L 270.707354 152.940417 
L 269.117325 150.583102 
L 267.366731 148.342443 
L 265.464101 146.229359 
L 263.418704 144.254142 
L 261.240506 142.426416 
L 258.940118 140.755087 
L 256.528747 139.248295 
L 254.018142 137.913383 
L 251.420534 136.756853 
L 248.748578 135.784341 
L 246.015292 135.000583 
L 243.233992 134.4094 
L 240.418228 134.01367 
L 237.581718 133.815322 
L 234.738282 133.815322 
L 231.901772 134.01367 
L 229.086008 134.4094 
L 226.304708 135.000583 
L 223.571422 135.784341 
L 220.899466 136.756853 
L 218.301858 137.913383 
L 215.791253 139.248295 
L 213.379882 140.755087 
L 211.079494 142.426416 
L 208.901296 144.254142 
L 206.855899 146.229359 
L 204.953269 148.342443 
L 203.202675 150.583102 
L 201.612646 152.940417 
L 200.190927 155.402905 
L 198.944447 157.958568 
L 197.879277 160.594956 
L 197.000607 163.299225 
L 196.312718 166.058199 
L 195.81896 168.858437 
L 195.52174 171.686296 
L 195.422506 174.528 
L 195.52174 177.369704 
L 195.81896 180.197563 
L 196.312718 182.997801 
L 197.000607 185.756775 
L 197.879277 188.461044 
L 198.944447 191.097432 
L 200.190927 193.653095 
L 201.612646 196.115583 
L 203.202675 198.472898 
L 204.953269 200.713557 
L 206.855899 202.826641 
L 208.901296 204.801858 
L 211.079494 206.629584 
L 213.379882 208.300913 
L 215.791253 209.807705 
L 218.301858 211.142617 
L 220.899466 212.299147 
L 223.571422 213.271659 
L 226.304708 214.055417 
L 229.086008 214.6466 
L 231.901772 215.04233 
L 234.738282 215.240678 
L 237.581718 215.240678 
L 240.418228 215.04233 
L 243.233992 214.6466 
L 246.015292 214.055417 
L 248.748578 213.271659 
L 251.420534 212.299147 
L 254.018142 211.142617 
L 256.528747 209.807705 
L 258.940118 208.300913 
L 261.240506 206.629584 
L 263.418704 204.801858 
L 265.464101 202.826641 
L 267.366731 200.713557 
L 269.117325 198.472898 
L 270.707354 196.115583 
L 272.129073 193.653095 
L 273.375553 191.097432 
L 274.440723 188.461044 
L 275.319393 185.756775 
L 276.007282 182.997801 
L 276.50104 180.197563 
L 276.79826 177.369704 
L 276.897494 174.528 
L 276.897494 174.528 
" style="fill:none;stroke:#b0b0b0;stroke-linecap:square;stroke-width:0.8;"/>
     </g>
     <g id="text_10">
      <!-- 0.4 -->
      <g transform="translate(273.796537 156.858748)scale(0.1 -0.1)">
       <use xlink:href="#DejaVuSans-48"/>
       <use x="63.623047" xlink:href="#DejaVuSans-46"/>
       <use x="95.410156" xlink:href="#DejaVuSans-52"/>
      </g>
     </g>
    </g>
    <g id="ytick_3">
     <g id="line2d_11">
      <path clip-path="url(#p12787b6e1d)" d="M 297.266241 174.528 
L 297.11739 170.265444 
L 296.67156 166.023655 
L 295.930923 161.823298 
L 294.899089 157.684837 
L 293.581084 153.628435 
L 291.983329 149.673852 
L 290.113609 145.840357 
L 287.981032 142.146625 
L 285.595988 138.610652 
L 282.970097 135.249665 
L 280.116152 132.080038 
L 277.048056 129.117213 
L 273.780759 126.375625 
L 270.330177 123.86863 
L 266.713121 121.608443 
L 262.947213 119.606074 
L 259.050801 117.87128 
L 255.042867 116.412511 
L 250.942938 115.236875 
L 246.770987 114.3501 
L 242.547342 113.756505 
L 238.292577 113.458983 
L 234.027423 113.458983 
L 229.772658 113.756505 
L 225.549013 114.3501 
L 221.377062 115.236875 
L 217.277133 116.412511 
L 213.269199 117.87128 
L 209.372787 119.606074 
L 205.606879 121.608443 
L 201.989823 123.86863 
L 198.539241 126.375625 
L 195.271944 129.117213 
L 192.203848 132.080038 
L 189.349903 135.249665 
L 186.724012 138.610652 
L 184.338968 142.146625 
L 182.206391 145.840357 
L 180.336671 149.673852 
L 178.738916 153.628435 
L 177.420911 157.684837 
L 176.389077 161.823298 
L 175.64844 166.023655 
L 175.20261 170.265444 
L 175.053759 174.528 
L 175.20261 178.790556 
L 175.64844 183.032345 
L 176.389077 187.232702 
L 177.420911 191.371163 
L 178.738916 195.427565 
L 180.336671 199.382148 
L 182.206391 203.215643 
L 184.338968 206.909375 
L 186.724012 210.445348 
L 189.349903 213.806335 
L 192.203848 216.975962 
L 195.271944 219.938787 
L 198.539241 222.680375 
L 201.989823 225.18737 
L 205.606879 227.447557 
L 209.372787 229.449926 
L 213.269199 231.18472 
L 217.277133 232.643489 
L 221.377062 233.819125 
L 225.549013 234.7059 
L 229.772658 235.299495 
L 234.027423 235.597017 
L 238.292577 235.597017 
L 242.547342 235.299495 
L 246.770987 234.7059 
L 250.942938 233.819125 
L 255.042867 232.643489 
L 259.050801 231.18472 
L 262.947213 229.449926 
L 266.713121 227.447557 
L 270.330177 225.18737 
L 273.780759 222.680375 
L 277.048056 219.938787 
L 280.116152 216.975962 
L 282.970097 213.806335 
L 285.595988 210.445348 
L 287.981032 206.909375 
L 290.113609 203.215643 
L 291.983329 199.382148 
L 293.581084 195.427565 
L 294.899089 191.371163 
L 295.930923 187.232702 
L 296.67156 183.032345 
L 297.11739 178.790556 
L 297.266241 174.528 
L 297.266241 174.528 
" style="fill:none;stroke:#b0b0b0;stroke-linecap:square;stroke-width:0.8;"/>
     </g>
     <g id="text_11">
      <!-- 0.6 -->
      <defs>
       <path d="M 33.015625 40.375 
Q 26.375 40.375 22.484375 35.828125 
Q 18.609375 31.296875 18.609375 23.390625 
Q 18.609375 15.53125 22.484375 10.953125 
Q 26.375 6.390625 33.015625 6.390625 
Q 39.65625 6.390625 43.53125 10.953125 
Q 47.40625 15.53125 47.40625 23.390625 
Q 47.40625 31.296875 43.53125 35.828125 
Q 39.65625 40.375 33.015625 40.375 
z
M 52.59375 71.296875 
L 52.59375 62.3125 
Q 48.875 64.0625 45.09375 64.984375 
Q 41.3125 65.921875 37.59375 65.921875 
Q 27.828125 65.921875 22.671875 59.328125 
Q 17.53125 52.734375 16.796875 39.40625 
Q 19.671875 43.65625 24.015625 45.921875 
Q 28.375 48.1875 33.59375 48.1875 
Q 44.578125 48.1875 50.953125 41.515625 
Q 57.328125 34.859375 57.328125 23.390625 
Q 57.328125 12.15625 50.6875 5.359375 
Q 44.046875 -1.421875 33.015625 -1.421875 
Q 20.359375 -1.421875 13.671875 8.265625 
Q 6.984375 17.96875 6.984375 36.375 
Q 6.984375 53.65625 15.1875 63.9375 
Q 23.390625 74.21875 37.203125 74.21875 
Q 40.921875 74.21875 44.703125 73.484375 
Q 48.484375 72.75 52.59375 71.296875 
z
" id="DejaVuSans-54"/>
      </defs>
      <g transform="translate(292.614806 149.063966)scale(0.1 -0.1)">
       <use xlink:href="#DejaVuSans-48"/>
       <use x="63.623047" xlink:href="#DejaVuSans-46"/>
       <use x="95.410156" xlink:href="#DejaVuSans-54"/>
      </g>
     </g>
    </g>
    <g id="ytick_4">
     <g id="line2d_12">
      <path clip-path="url(#p12787b6e1d)" d="M 317.634989 174.528 
L 317.43652 168.844592 
L 316.84208 163.188873 
L 315.854565 157.588397 
L 314.478786 152.07045 
L 312.721446 146.661913 
L 310.591106 141.389137 
L 308.098145 136.27781 
L 305.254709 131.352834 
L 302.07465 126.638203 
L 298.573462 122.156887 
L 294.768202 117.930717 
L 290.677409 113.980284 
L 286.321012 110.324833 
L 281.720235 106.982173 
L 276.897494 103.96859 
L 271.876284 101.298765 
L 266.681068 98.985706 
L 261.337156 97.040681 
L 255.870584 95.473167 
L 250.307983 94.2908 
L 244.676455 93.49934 
L 239.003436 93.102644 
L 233.316564 93.102644 
L 227.643545 93.49934 
L 222.012017 94.2908 
L 216.449416 95.473167 
L 210.982844 97.040681 
L 205.638932 98.985706 
L 200.443716 101.298765 
L 195.422506 103.96859 
L 190.599765 106.982173 
L 185.998988 110.324833 
L 181.642591 113.980284 
L 177.551798 117.930717 
L 173.746538 122.156887 
L 170.24535 126.638203 
L 167.065291 131.352834 
L 164.221855 136.27781 
L 161.728894 141.389137 
L 159.598554 146.661913 
L 157.841214 152.07045 
L 156.465435 157.588397 
L 155.47792 163.188873 
L 154.88348 168.844592 
L 154.685011 174.528 
L 154.88348 180.211408 
L 155.47792 185.867127 
L 156.465435 191.467603 
L 157.841214 196.98555 
L 159.598554 202.394087 
L 161.728894 207.666863 
L 164.221855 212.77819 
L 167.065291 217.703166 
L 170.24535 222.417797 
L 173.746538 226.899113 
L 177.551798 231.125283 
L 181.642591 235.075716 
L 185.998988 238.731167 
L 190.599765 242.073827 
L 195.422506 245.08741 
L 200.443716 247.757235 
L 205.638932 250.070294 
L 210.982844 252.015319 
L 216.449416 253.582833 
L 222.012017 254.7652 
L 227.643545 255.55666 
L 233.316564 255.953356 
L 239.003436 255.953356 
L 244.676455 255.55666 
L 250.307983 254.7652 
L 255.870584 253.582833 
L 261.337156 252.015319 
L 266.681068 250.070294 
L 271.876284 247.757235 
L 276.897494 245.08741 
L 281.720235 242.073827 
L 286.321012 238.731167 
L 290.677409 235.075716 
L 294.768202 231.125283 
L 298.573462 226.899113 
L 302.07465 222.417797 
L 305.254709 217.703166 
L 308.098145 212.77819 
L 310.591106 207.666863 
L 312.721446 202.394087 
L 314.478786 196.98555 
L 315.854565 191.467603 
L 316.84208 185.867127 
L 317.43652 180.211408 
L 317.634989 174.528 
L 317.634989 174.528 
" style="fill:none;stroke:#b0b0b0;stroke-linecap:square;stroke-width:0.8;"/>
     </g>
     <g id="text_12">
      <!-- 0.8 -->
      <g transform="translate(311.433074 141.269184)scale(0.1 -0.1)">
       <use xlink:href="#DejaVuSans-48"/>
       <use x="63.623047" xlink:href="#DejaVuSans-46"/>
       <use x="95.410156" xlink:href="#DejaVuSans-56"/>
      </g>
     </g>
    </g>
    <g id="ytick_5">
     <g id="line2d_13">
      <path clip-path="url(#p12787b6e1d)" d="M 338.003736 174.528 
L 337.941695 170.973705 
L 337.75565 167.42374 
L 337.445825 163.882431 
L 337.0126 160.354091 
L 336.456501 156.843021 
L 335.778206 153.353497 
L 334.978542 149.88977 
L 334.058482 146.456062 
L 333.019149 143.056555 
L 331.861807 139.695391 
L 330.587867 136.376665 
L 329.198882 133.104421 
L 327.696543 129.882645 
L 326.082681 126.715262 
L 324.359262 123.606132 
L 322.528386 120.559042 
L 320.592283 117.577706 
L 318.553313 114.665754 
L 316.413959 111.826735 
L 314.176828 109.064109 
L 311.844645 106.381239 
L 309.420253 103.781396 
L 306.906604 101.267747 
L 304.306761 98.843355 
L 301.623891 96.511172 
L 298.861265 94.274041 
L 296.022246 92.134687 
L 293.110294 90.095717 
L 290.128958 88.159614 
L 287.081868 86.328738 
L 283.972738 84.605319 
L 280.805355 82.991457 
L 277.583579 81.489118 
L 274.311335 80.100133 
L 270.992609 78.826193 
L 267.631445 77.668851 
L 264.231938 76.629518 
L 260.79823 75.709458 
L 257.334503 74.909794 
L 253.844979 74.231499 
L 250.333909 73.6754 
L 246.805569 73.242175 
L 243.26426 72.93235 
L 239.714295 72.746305 
L 236.16 72.684264 
L 232.605705 72.746305 
L 229.05574 72.93235 
L 225.514431 73.242175 
L 221.986091 73.6754 
L 218.475021 74.231499 
L 214.985497 74.909794 
L 211.52177 75.709458 
L 208.088062 76.629518 
L 204.688555 77.668851 
L 201.327391 78.826193 
L 198.008665 80.100133 
L 194.736421 81.489118 
L 191.514645 82.991457 
L 188.347262 84.605319 
L 185.238132 86.328738 
L 182.191042 88.159614 
L 179.209706 90.095717 
L 176.297754 92.134687 
L 173.458735 94.274041 
L 170.696109 96.511172 
L 168.013239 98.843355 
L 165.413396 101.267747 
L 162.899747 103.781396 
L 160.475355 106.381239 
L 158.143172 109.064109 
L 155.906041 111.826735 
L 153.766687 114.665754 
L 151.727717 117.577706 
L 149.791614 120.559042 
L 147.960738 123.606132 
L 146.237319 126.715262 
L 144.623457 129.882645 
L 143.121118 133.104421 
L 141.732133 136.376665 
L 140.458193 139.695391 
L 139.300851 143.056555 
L 138.261518 146.456062 
L 137.341458 149.88977 
L 136.541794 153.353497 
L 135.863499 156.843021 
L 135.3074 160.354091 
L 134.874175 163.882431 
L 134.56435 167.42374 
L 134.378305 170.973705 
L 134.316264 174.528 
L 134.378305 178.082295 
L 134.56435 181.63226 
L 134.874175 185.173569 
L 135.3074 188.701909 
L 135.863499 192.212979 
L 136.541794 195.702503 
L 137.341458 199.16623 
L 138.261518 202.599938 
L 139.300851 205.999445 
L 140.458193 209.360609 
L 141.732133 212.679335 
L 143.121118 215.951579 
L 144.623457 219.173355 
L 146.237319 222.340738 
L 147.960738 225.449868 
L 149.791614 228.496958 
L 151.727717 231.478294 
L 153.766687 234.390246 
L 155.906041 237.229265 
L 158.143172 239.991891 
L 160.475355 242.674761 
L 162.899747 245.274604 
L 165.413396 247.788253 
L 168.013239 250.212645 
L 170.696109 252.544828 
L 173.458735 254.781959 
L 176.297754 256.921313 
L 179.209706 258.960283 
L 182.191042 260.896386 
L 185.238132 262.727262 
L 188.347262 264.450681 
L 191.514645 266.064543 
L 194.736421 267.566882 
L 198.008665 268.955867 
L 201.327391 270.229807 
L 204.688555 271.387149 
L 208.088062 272.426482 
L 211.52177 273.346542 
L 214.985497 274.146206 
L 218.475021 274.824501 
L 221.986091 275.3806 
L 225.514431 275.813825 
L 229.05574 276.12365 
L 232.605705 276.309695 
L 236.16 276.371736 
L 239.714295 276.309695 
L 243.26426 276.12365 
L 246.805569 275.813825 
L 250.333909 275.3806 
L 253.844979 274.824501 
L 257.334503 274.146206 
L 260.79823 273.346542 
L 264.231938 272.426482 
L 267.631445 271.387149 
L 270.992609 270.229807 
L 274.311335 268.955867 
L 277.583579 267.566882 
L 280.805355 266.064543 
L 283.972738 264.450681 
L 287.081868 262.727262 
L 290.128958 260.896386 
L 293.110294 258.960283 
L 296.022246 256.921313 
L 298.861265 254.781959 
L 301.623891 252.544828 
L 304.306761 250.212645 
L 306.906604 247.788253 
L 309.420253 245.274604 
L 311.844645 242.674761 
L 314.176828 239.991891 
L 316.413959 237.229265 
L 318.553313 234.390246 
L 320.592283 231.478294 
L 322.528386 228.496958 
L 324.359262 225.449868 
L 326.082681 222.340738 
L 327.696543 219.173355 
L 329.198882 215.951579 
L 330.587867 212.679335 
L 331.861807 209.360609 
L 333.019149 205.999445 
L 334.058482 202.599938 
L 334.978542 199.16623 
L 335.778206 195.702503 
L 336.456501 192.212979 
L 337.0126 188.701909 
L 337.445825 185.173569 
L 337.75565 181.63226 
L 337.941695 178.082295 
L 338.003736 174.528 
L 338.003736 174.528 
" style="fill:none;stroke:#b0b0b0;stroke-linecap:square;stroke-width:0.8;"/>
     </g>
     <g id="text_13">
      <!-- 1.0 -->
      <g transform="translate(330.251343 133.474402)scale(0.1 -0.1)">
       <use xlink:href="#DejaVuSans-49"/>
       <use x="63.623047" xlink:href="#DejaVuSans-46"/>
       <use x="95.410156" xlink:href="#DejaVuSans-48"/>
      </g>
     </g>
    </g>
    <g id="ytick_6">
     <g id="line2d_14">
      <path clip-path="url(#p12787b6e1d)" d="M 358.372483 174.528 
L 358.298034 170.262846 
L 358.074779 166.002888 
L 357.70299 161.753317 
L 357.183119 157.51931 
L 356.515801 153.306025 
L 355.701847 149.118596 
L 354.74225 144.962124 
L 353.638179 140.841674 
L 352.390978 136.762266 
L 351.002168 132.728869 
L 349.473441 128.746398 
L 347.806659 124.819705 
L 346.003852 120.953574 
L 344.067218 117.152715 
L 341.999115 113.421759 
L 339.802063 109.765251 
L 337.47874 106.187647 
L 335.031976 102.693305 
L 332.464751 99.286482 
L 329.780193 95.97133 
L 326.981574 92.751887 
L 324.072303 89.632076 
L 321.055924 86.615697 
L 317.936113 83.706426 
L 314.71667 80.907807 
L 311.401518 78.223249 
L 307.994695 75.656024 
L 304.500353 73.20926 
L 300.922749 70.885937 
L 297.266241 68.688885 
L 293.535285 66.620782 
L 289.734426 64.684148 
L 285.868295 62.881341 
L 281.941602 61.214559 
L 277.959131 59.685832 
L 273.925734 58.297022 
L 269.846326 57.049821 
L 265.725876 55.94575 
L 261.569404 54.986153 
L 257.381975 54.172199 
L 253.16869 53.504881 
L 248.934683 52.98501 
L 244.685112 52.613221 
L 240.425154 52.389966 
L 236.16 52.315517 
L 231.894846 52.389966 
L 227.634888 52.613221 
L 223.385317 52.98501 
L 219.15131 53.504881 
L 214.938025 54.172199 
L 210.750596 54.986153 
L 206.594124 55.94575 
L 202.473674 57.049821 
L 198.394266 58.297022 
L 194.360869 59.685832 
L 190.378398 61.214559 
L 186.451705 62.881341 
L 182.585574 64.684148 
L 178.784715 66.620782 
L 175.053759 68.688885 
L 171.397251 70.885937 
L 167.819647 73.20926 
L 164.325305 75.656024 
L 160.918482 78.223249 
L 157.60333 80.907807 
L 154.383887 83.706426 
L 151.264076 86.615697 
L 148.247697 89.632076 
L 145.338426 92.751887 
L 142.539807 95.97133 
L 139.855249 99.286482 
L 137.288024 102.693305 
L 134.84126 106.187647 
L 132.517937 109.765251 
L 130.320885 113.421759 
L 128.252782 117.152715 
L 126.316148 120.953574 
L 124.513341 124.819705 
L 122.846559 128.746398 
L 121.317832 132.728869 
L 119.929022 136.762266 
L 118.681821 140.841674 
L 117.57775 144.962124 
L 116.618153 149.118596 
L 115.804199 153.306025 
L 115.136881 157.51931 
L 114.61701 161.753317 
L 114.245221 166.002888 
L 114.021966 170.262846 
L 113.947517 174.528 
L 114.021966 178.793154 
L 114.245221 183.053112 
L 114.61701 187.302683 
L 115.136881 191.53669 
L 115.804199 195.749975 
L 116.618153 199.937404 
L 117.57775 204.093876 
L 118.681821 208.214326 
L 119.929022 212.293734 
L 121.317832 216.327131 
L 122.846559 220.309602 
L 124.513341 224.236295 
L 126.316148 228.102426 
L 128.252782 231.903285 
L 130.320885 235.634241 
L 132.517937 239.290749 
L 134.84126 242.868353 
L 137.288024 246.362695 
L 139.855249 249.769518 
L 142.539807 253.08467 
L 145.338426 256.304113 
L 148.247697 259.423924 
L 151.264076 262.440303 
L 154.383887 265.349574 
L 157.60333 268.148193 
L 160.918482 270.832751 
L 164.325305 273.399976 
L 167.819647 275.84674 
L 171.397251 278.170063 
L 175.053759 280.367115 
L 178.784715 282.435218 
L 182.585574 284.371852 
L 186.451705 286.174659 
L 190.378398 287.841441 
L 194.360869 289.370168 
L 198.394266 290.758978 
L 202.473674 292.006179 
L 206.594124 293.11025 
L 210.750596 294.069847 
L 214.938025 294.883801 
L 219.15131 295.551119 
L 223.385317 296.07099 
L 227.634888 296.442779 
L 231.894846 296.666034 
L 236.16 296.740483 
L 240.425154 296.666034 
L 244.685112 296.442779 
L 248.934683 296.07099 
L 253.16869 295.551119 
L 257.381975 294.883801 
L 261.569404 294.069847 
L 265.725876 293.11025 
L 269.846326 292.006179 
L 273.925734 290.758978 
L 277.959131 289.370168 
L 281.941602 287.841441 
L 285.868295 286.174659 
L 289.734426 284.371852 
L 293.535285 282.435218 
L 297.266241 280.367115 
L 300.922749 278.170063 
L 304.500353 275.84674 
L 307.994695 273.399976 
L 311.401518 270.832751 
L 314.71667 268.148193 
L 317.936113 265.349574 
L 321.055924 262.440303 
L 324.072303 259.423924 
L 326.981574 256.304113 
L 329.780193 253.08467 
L 332.464751 249.769518 
L 335.031976 246.362695 
L 337.47874 242.868353 
L 339.802063 239.290749 
L 341.999115 235.634241 
L 344.067218 231.903285 
L 346.003852 228.102426 
L 347.806659 224.236295 
L 349.473441 220.309602 
L 351.002168 216.327131 
L 352.390978 212.293734 
L 353.638179 208.214326 
L 354.74225 204.093876 
L 355.701847 199.937404 
L 356.515801 195.749975 
L 357.183119 191.53669 
L 357.70299 187.302683 
L 358.074779 183.053112 
L 358.298034 178.793154 
L 358.372483 174.528 
L 358.372483 174.528 
" style="fill:none;stroke:#b0b0b0;stroke-linecap:square;stroke-width:0.8;"/>
     </g>
     <g id="text_14">
      <!-- 1.2 -->
      <g transform="translate(349.069612 125.67962)scale(0.1 -0.1)">
       <use xlink:href="#DejaVuSans-49"/>
       <use x="63.623047" xlink:href="#DejaVuSans-46"/>
       <use x="95.410156" xlink:href="#DejaVuSans-50"/>
      </g>
     </g>
    </g>
   </g>
   <g id="line2d_15">
    <path clip-path="url(#p12787b6e1d)" d="M 340.742657 174.528 
L 322.998642 144.716257 
L 310.585435 116.600358 
L 278.870903 109.154096 
L 260.045655 80.205682 
L 230.052246 100.818368 
L 195.669617 82.219225 
L 149.32083 80.195515 
L 143.733575 124.50932 
L 169.175879 163.350327 
L 129.479553 192.329818 
L 139.451196 226.864188 
L 174.975345 240.992253 
L 183.958143 293.536247 
L 226.630758 289.528846 
L 266.945259 296.096238 
L 297.762453 268.817573 
L 294.66321 220.062876 
L 303.177369 197.535092 
L 340.742657 174.528 
" style="fill:none;stroke:#1f77b4;stroke-linecap:square;stroke-width:1.5;"/>
   </g>
   <g id="patch_3">
    <path d="M 369.216 174.528 
C 369.216 157.055246 365.774248 139.752393 359.087715 123.609673 
C 352.401182 107.466954 342.599903 92.798303 330.2448 80.4432 
C 317.889697 68.088097 303.221046 58.286818 287.078327 51.600285 
C 270.935607 44.913752 253.632754 41.472 236.16 41.472 
C 218.687246 41.472 201.384393 44.913752 185.241673 51.600285 
C 169.098954 58.286818 154.430303 68.088097 142.0752 80.4432 
C 129.720097 92.798303 119.918818 107.466954 113.232285 123.609673 
C 106.545752 139.752393 103.104 157.055246 103.104 174.528 
C 103.104 192.000754 106.545752 209.303607 113.232285 225.446327 
C 119.918818 241.589046 129.720097 256.257697 142.0752 268.6128 
C 154.430303 280.967903 169.098954 290.769182 185.241673 297.455715 
C 201.384393 304.142248 218.687246 307.584 236.16 307.584 
C 253.632754 307.584 270.935607 304.142248 287.078327 297.455715 
C 303.221046 290.769182 317.889697 280.967903 330.2448 268.6128 
C 342.599903 256.257697 352.401182 241.589046 359.087715 225.446327 
C 365.774248 209.303607 369.216 192.000754 369.216 174.528 
" style="fill:none;stroke:#000000;stroke-linecap:square;stroke-linejoin:miter;stroke-width:0.8;"/>
   </g>
  </g>
 </g>
 <defs>
  <clipPath id="p12787b6e1d">
   <path d="M 369.216 174.528 
C 369.216 157.055246 365.774248 139.752393 359.087715 123.609673 
C 352.401182 107.466954 342.599903 92.798303 330.2448 80.4432 
C 317.889697 68.088097 303.221046 58.286818 287.078327 51.600285 
C 270.935607 44.913752 253.632754 41.472 236.16 41.472 
C 218.687246 41.472 201.384393 44.913752 185.241673 51.600285 
C 169.098954 58.286818 154.430303 68.088097 142.0752 80.4432 
C 129.720097 92.798303 119.918818 107.466954 113.232285 123.609673 
C 106.545752 139.752393 103.104 157.055246 103.104 174.528 
C 103.104 192.000754 106.545752 209.303607 113.232285 225.446327 
C 119.918818 241.589046 129.720097 256.257697 142.0752 268.6128 
C 154.430303 280.967903 169.098954 290.769182 185.241673 297.455715 
C 201.384393 304.142248 218.687246 307.584 236.16 307.584 
C 253.632754 307.584 270.935607 304.142248 287.078327 297.455715 
C 303.221046 290.769182 317.889697 280.967903 330.2448 268.6128 
C 342.599903 256.257697 352.401182 241.589046 359.087715 225.446327 
C 365.774248 209.303607 369.216 192.000754 369.216 174.528 
M 236.16 174.528 
C 236.16 174.528 236.16 174.528 236.16 174.528 
C 236.16 174.528 236.16 174.528 236.16 174.528 
C 236.16 174.528 236.16 174.528 236.16 174.528 
C 236.16 174.528 236.16 174.528 236.16 174.528 
C 236.16 174.528 236.16 174.528 236.16 174.528 
C 236.16 174.528 236.16 174.528 236.16 174.528 
C 236.16 174.528 236.16 174.528 236.16 174.528 
C 236.16 174.528 236.16 174.528 236.16 174.528 
C 236.16 174.528 236.16 174.528 236.16 174.528 
C 236.16 174.528 236.16 174.528 236.16 174.528 
C 236.16 174.528 236.16 174.528 236.16 174.528 
C 236.16 174.528 236.16 174.528 236.16 174.528 
C 236.16 174.528 236.16 174.528 236.16 174.528 
C 236.16 174.528 236.16 174.528 236.16 174.528 
C 236.16 174.528 236.16 174.528 236.16 174.528 
C 236.16 174.528 236.16 174.528 236.16 174.528 
M 369.216 174.528 
z
"/>
  </clipPath>
 </defs>
</svg>
